<?xml version="1.0" encoding="utf-8"?>
<!-- Generator: Adobe Illustrator 16.0.0, SVG Export Plug-In . SVG Version: 6.00 Build 0)  -->
<!DOCTYPE svg PUBLIC "-//W3C//DTD SVG 1.1//EN" "http://www.w3.org/Graphics/SVG/1.1/DTD/svg11.dtd">
<svg version="1.1" id="Livello_1" xmlns="http://www.w3.org/2000/svg" xmlns:xlink="http://www.w3.org/1999/xlink" x="0px" y="0px"
	 width="60px" height="60px" viewBox="0 0 60 60" enable-background="new 0 0 60 60" xml:space="preserve">
<g>
	<path d="M57.602,29.2c0,7.904-2.592,14.477-7.787,19.725c-5.186,5.244-11.75,7.864-19.693,7.864c-8.276,0-14.97-2.603-20.086-7.81
		C4.918,43.771,2.362,37.012,2.362,28.7c0-3.103,0.239-5.567,0.719-7.395c0.48-1.829,1.47-4.074,2.965-6.732
		c1.497-2.66,3.851-5.217,7.065-7.675c3.213-2.457,6.241-3.961,9.086-4.516c0.036-0.036,0.758-0.221,2.162-0.554
		c0.886-0.257,1.605-0.388,2.16-0.388c0.185,0,0.435,0.027,0.749,0.083c0.314,0.054,0.543,0.083,0.692,0.083
		c0.11,0,0.221-0.036,0.334-0.11h0.997c-7.535,0.295-13.852,3.111-18.95,8.447c-5.097,5.339-7.647,11.775-7.647,19.31
		c0,4.987,0.796,8.552,2.383,10.694c0.406,0.519,0.665,0.775,0.775,0.775c0.075,0,0.23-0.248,0.472-0.744
		c0.241-0.505,0.656-0.749,1.246-0.749c0.517,0,0.999,0.239,1.441,0.718c0.444,0.482,0.683,0.996,0.721,1.551
		c-0.259,0.739-0.647,1.258-1.164,1.555C8.79,42.685,8.9,42.278,8.9,41.833c-1.146-0.627-1.792-0.943-1.939-0.943
		c-0.629,0-0.942,0.222-0.942,0.668c0,0.775,1.062,2.195,3.186,4.265c2.124,2.065,3.556,3.103,4.295,3.103
		c0.146,0,0.433-0.14,0.859-0.415c0.424-0.279,0.692-0.415,0.803-0.415h2.049c0.036,0.587-0.277,1.087-0.94,1.498
		c-0.149,0.036-0.298-0.077-0.444-0.334c-0.444,0.293-0.701,0.721-0.776,1.271h9.641c0.185-0.145,0.277-0.352,0.277-0.609h4.044
		c0.334,0,0.832,0.14,1.497,0.416c0.666,0.274,1.163,0.418,1.495,0.418c0.036,0,0.397-0.197,1.08-0.585
		c0.683-0.389,1.359-0.577,2.022-0.577c0.37,0,0.847,0.216,1.443,0.663c0.369-0.37,1.289-0.704,2.768-0.997
		c1.218-0.226,2.236-0.334,3.049-0.334c0.297,0,0.739,0.136,1.33,0.415s1.032,0.415,1.33,0.415c0.478,0,1.091-0.37,1.83-1.108
		c0.515-0.552,1.028-1.11,1.552-1.66c0.252-0.189,1.181-0.794,2.768-1.831c1.033-0.663,1.868-1.461,2.489-2.38
		c1.146-1.587,2.056-3.788,2.719-6.596c0.591-2.473,0.889-4.838,0.889-7.092c0-7.571-2.516-13.962-7.538-19.17
		c-5.024-5.208-11.341-8.015-18.95-8.42c8.02,0.516,14.463,3.251,19.337,8.2C55.107,14.758,57.602,21.258,57.602,29.2z
		 M7.015,36.846H6.239c0-0.776-0.295-1.283-0.886-1.524c-0.591-0.239-0.979-0.543-1.164-0.913c0.147,0,0.352-0.036,0.609-0.11
		c0.259-0.074,0.444-0.113,0.555-0.113c0.591,0,0.979,0.308,1.163,0.916C6.702,35.709,6.868,36.291,7.015,36.846z M5.52,30.695
		c0,0.11-0.295,0.775-0.886,1.995c-0.074-0.146-0.113-0.388-0.113-0.721c0-0.332,0.039-0.756,0.113-1.274
		c0.072-0.665,0.11-1.107,0.11-1.33C5.261,29.698,5.52,30.141,5.52,30.695z M5.687,25.043c0,0.259-0.259,0.722-0.777,1.387
		l-0.165-1.885C5.04,24.545,5.354,24.711,5.687,25.043z M6.74,20.667c0,0.591-0.445,1.017-1.331,1.274
		c0-0.185,0.054-0.535,0.165-1.053c0.112-0.406,0.167-0.755,0.167-1.053c0.11-0.072,0.313-0.128,0.609-0.165
		C6.609,20.151,6.74,20.482,6.74,20.667z M8.568,30.03c0,0.48-0.464,1.201-1.387,2.161c-0.036-0.148-0.185-0.333-0.441-0.554
		c0.552-0.812,0.829-1.33,0.829-1.551c0,0.036-0.221-0.37-0.665-1.22C8.014,29.052,8.568,29.439,8.568,30.03z M7.847,15.125
		c0,0.185-0.027,0.462-0.083,0.832c-0.054,0.37-0.083,0.647-0.083,0.832H6.905c0.074-0.37,0.14-0.712,0.194-1.025
		C7.155,15.45,7.403,15.236,7.847,15.125z M9.231,24.989c0,0.37-0.534,1.035-1.605,1.995c-0.039-0.038-0.083-0.102-0.14-0.194
		c-0.054-0.092-0.083-0.214-0.083-0.36c0-0.185,0.14-0.435,0.417-0.749s0.415-0.543,0.415-0.692c0-0.296-0.22-0.535-0.665-0.722
		l0.722-0.776C8.918,24.121,9.231,24.619,9.231,24.989z M10.23,36.18c-0.333-0.071-0.775-0.423-1.33-1.052
		c-0.408-0.479-0.796-0.943-1.164-1.385h0.886c0.406,0,0.942,0.332,1.607,0.996V36.18z M10.063,19.116
		c0,0.331-0.406,0.997-1.22,1.995h-0.94v-0.167c0-0.259,0.129-0.48,0.388-0.665c0.442-0.259,0.684-0.388,0.72-0.388
		c-0.036-0.516-0.129-1.256-0.278-2.216C9.067,17.786,9.509,18.266,10.063,19.116z M12.335,30.197
		c-0.37-1.256-0.85-1.885-1.44-1.885c0.11,0-0.498,0.223-1.828,0.666v-0.776l0.719-0.665h2.105
		C11.892,27.76,12.039,28.646,12.335,30.197z M12.39,22.716c0,0.444-0.314,0.981-0.942,1.607v-0.832
		c0-0.368,0.038-0.719,0.112-1.052c-0.074-0.037-0.167-0.055-0.277-0.055c-0.185,0-0.453,0.048-0.805,0.138
		c-0.352,0.092-0.6,0.14-0.746,0.14l-0.333-0.056c0-0.146,0.128-0.462,0.388-0.942h2.439c0,0.111,0.027,0.286,0.081,0.528
		C12.363,22.433,12.39,22.606,12.39,22.716z M12.888,46.485l-0.776,0.775c-0.146-0.591-0.48-0.951-0.996-1.077
		c-0.519-0.131-1.035-0.234-1.551-0.307v-0.722c0.221-0.514,0.573-0.775,1.053-0.775c0.776,0,1.292,0.189,1.551,0.555
		C12.426,45.452,12.667,45.968,12.888,46.485z M13.055,39.835c-0.036,0.041-0.119,0.113-0.248,0.226
		c-0.131,0.108-0.269,0.162-0.417,0.162c-0.332,0-0.803-0.262-1.412-0.803c-0.611-0.532-1.026-0.983-1.247-1.353h1.716
		C12.372,38.067,12.908,38.653,13.055,39.835z M13,34.185c-0.259-1.106-1.035-1.568-2.329-1.384
		c0.185-0.517,0.406-0.775,0.665-0.775c0.185,0,0.462,0.093,0.832,0.277c0.516,0.259,0.793,0.406,0.832,0.442V34.185z
		 M12.557,13.908c0,0.295-0.241,0.645-0.721,1.053c-0.332,0.257-0.683,0.534-1.051,0.83c0.146-0.848,0.221-1.44,0.221-1.772
		c0-0.48-0.074-0.886-0.221-1.22c0.737,0,1.328,0.11,1.772,0.334V13.908z M13.887,18.063c0,0.37-0.408,1.127-1.22,2.27l-0.442-0.441
		c0.663-0.96,0.997-1.569,0.997-1.828c0-0.146-0.12-0.361-0.36-0.638c-0.242-0.277-0.397-0.471-0.471-0.582h0.11
		c0.223,0,0.507,0.149,0.859,0.444C13.711,17.583,13.887,17.842,13.887,18.063z M16.27,43.216c0,0.073-0.206,0.812-0.611,2.219
		c-0.074-0.332-0.36-0.59-0.858-0.774c-0.499-0.186-0.952-0.334-1.358-0.442c0-0.153-0.092-0.379-0.277-0.694
		c-0.185-0.315-0.277-0.546-0.277-0.694c0-0.145,0.065-0.298,0.193-0.442c0.131-0.148,0.194-0.261,0.194-0.333h1.553
		c0.221,0,0.517,0.148,0.886,0.441C16.083,42.793,16.27,43.036,16.27,43.216z M15.05,20.5c0,0.775-0.259,1.201-0.775,1.274v-0.72
		C14.385,20.87,14.642,20.685,15.05,20.5z M16.879,39.835c-0.039,0-0.214-0.127-0.528-0.388c-0.313-0.252-0.543-0.389-0.692-0.389
		h-1.384c0-0.18,0.027-0.414,0.083-0.688c0.054-0.275,0.083-0.492,0.083-0.639h1.605C16.38,38.176,16.658,38.879,16.879,39.835z
		 M17.21,28.091v0.333c-0.516-0.739-1.035-1.109-1.551-1.109c-0.185,0-0.388,0.221-0.609,0.665c-0.259,0-0.462-0.369-0.608-1.109
		c0.257-0.256,0.608-0.388,1.053-0.388C16.637,26.483,17.21,27.021,17.21,28.091z M17.765,33.854
		c-0.442-0.037-0.73-0.194-0.859-0.472c-0.129-0.278-0.269-0.562-0.415-0.859c-0.074,0.038-0.194,0.157-0.361,0.361
		c-0.167,0.202-0.322,0.304-0.471,0.304c-0.111,0-0.516-0.185-1.217-0.555c0-0.257,0.111-0.516,0.331-0.775h2.438
		C17.285,32.043,17.469,32.709,17.765,33.854z M15.328,11.856l-0.224,0.444l-0.275-0.11l0.221-0.445L15.328,11.856z M18.263,17.398
		l-0.11,0.221l-2.27-1.33l0.11-0.221L18.263,17.398z M16.491,13.52h-0.277l-0.221-1.386h0.332L16.491,13.52z M21.421,43.717
		c0,0.185-0.167,0.627-0.499,1.33H19.98v-1.663c-0.074,0-0.158-0.027-0.248-0.086c-0.095-0.054-0.194-0.082-0.307-0.082
		c-0.147,0-0.517,0.442-1.107,1.331c-0.48-0.812-0.721-1.367-0.721-1.664c0-0.442,0.241-0.803,0.721-1.078
		c0.48-0.274,0.96-0.419,1.44-0.419C20.867,41.386,21.421,42.161,21.421,43.717z M21.421,47.87c-0.111,0.188-0.23,0.352-0.36,0.5
		c-0.129,0.149-0.379,0.257-0.747,0.33c0.072-0.146,0.11-0.275,0.11-0.389c0-0.514-0.886-0.775-2.66-0.775v-0.162
		c0.036-0.406-0.018-0.704-0.167-0.889c0.112-0.036,0.351-0.167,0.721-0.387c0.367-0.222,0.627-0.33,0.775-0.33
		c0.37,0,1.145,0.275,2.327,0.83V47.87z M19.649,52.415l-0.167-0.167l-0.609,0.555l0.165,0.167L19.649,52.415z M22.253,38.176
		h-0.886c-0.149,0-0.527-0.145-1.136-0.444c-0.611-0.296-0.99-0.498-1.136-0.608l0.886-0.057c0.296,0,0.647,0.038,1.053,0.113
		c0.554,0.146,0.904,0.221,1.053,0.221C22.123,37.585,22.179,37.842,22.253,38.176z M22.364,33.3v0.056
		c-0.591-1.109-1.071-1.662-1.441-1.662c-0.221,0-0.536,0.111-0.942,0.332v-0.832c0.037,0,0.12-0.027,0.25-0.083
		c0.128-0.055,0.248-0.081,0.361-0.081c0.478,0,0.904,0.257,1.274,0.775C22.233,32.32,22.399,32.821,22.364,33.3z M22.584,16.843
		c-0.259,0.259-0.388,0.519-0.388,0.775c-0.11-0.295-0.295-0.737-0.555-1.33C21.755,16.401,22.068,16.587,22.584,16.843z
		 M26.298,46.099c0,0.256-0.295,1.258-0.886,2.988c-0.148,0-0.361-0.026-0.638-0.081c-0.277-0.054-0.489-0.099-0.638-0.135
		c0.223-0.446,0.334-0.853,0.334-1.222c0-0.483-0.221-0.717-0.665-0.717c-0.26,0-0.49,0.171-0.692,0.522
		c-0.205,0.352-0.325,0.677-0.36,0.97c-0.666-0.221-0.997-0.646-0.997-1.276c0-0.663,0.331-1.217,0.997-1.659
		c0.554-0.37,1.181-0.555,1.884-0.555C25.743,44.935,26.298,45.322,26.298,46.099z M24.912,54.074v-1.768h-0.94
		c0.072,0.55-0.593,0.83-1.996,0.83c0.036,0.221,0.093,0.532,0.167,0.938H24.912z M27.294,44.047h-0.83
		c-0.038-0.33-0.297-0.663-0.777-0.993c-0.48-0.333-0.886-0.504-1.217-0.504c-0.298,0-0.427,0.171-0.388,0.504
		c-0.629-0.559-0.942-0.946-0.942-1.163c0-0.297,0.268-0.622,0.802-0.974c0.537-0.353,0.952-0.523,1.247-0.523
		c1.405,0,2.106,0.849,2.106,2.544V44.047z M27.461,37.4c0,0.259-0.13,0.536-0.388,0.829l-0.665-0.498
		c-0.295-0.221-0.536-0.331-0.721-0.331c-0.146,0-0.719,0.148-1.716,0.441v-0.939c0.478-0.591,0.979-0.89,1.495-0.89
		C26.796,36.013,27.461,36.478,27.461,37.4z M26.907,32.801v0.057c-0.665-0.555-1.238-0.832-1.718-0.832
		c-0.259-0.257-0.388-0.534-0.388-0.832c0.036,0,0.12-0.027,0.25-0.083c0.128-0.055,0.269-0.081,0.416-0.081
		c0.369,0,0.709,0.202,1.025,0.608C26.805,32.043,26.943,32.432,26.907,32.801z M31.285,52.856v-1.108
		c-0.48,0.631-1.109,0.983-1.885,1.055c0.185,0-0.573,0-2.272,0c0.075,0.186,0.131,0.441,0.167,0.775
		c1.44,0.37,2.198,0.555,2.272,0.555C30.71,54.133,31.285,53.705,31.285,52.856z M32.004,47.762c0,0.108-0.036,0.248-0.11,0.415
		c-0.075,0.167-0.12,0.279-0.138,0.333c-0.02,0.056-0.095,0.108-0.223,0.162c-0.129,0.059-0.248,0.086-0.358,0.086
		c-0.188,0-0.298-0.076-0.334-0.221c-0.036-0.148-0.074-0.243-0.11-0.279c-0.37,0.226-0.758,0.333-1.164,0.333
		c-0.298,0-0.942-0.126-1.939-0.387c0.368-1.294,1.236-1.939,2.604-1.939c0.257,0,0.618,0.185,1.08,0.555
		C31.773,47.185,32.004,47.5,32.004,47.762z M32.836,43.496c0,0.181-0.074,0.47-0.223,0.856c-0.147,0.389-0.297,0.582-0.442,0.582
		c-0.185,0-0.546-0.203-1.08-0.608c-0.537-0.406-0.879-0.609-1.025-0.609c-0.295,0-0.519,0.221-0.666,0.663
		c-0.406-0.775-0.608-1.218-0.608-1.326c0-1,0.755-1.496,2.271-1.496c0.369,0,0.756,0.217,1.162,0.662
		C32.633,42.667,32.836,43.091,32.836,43.496z M32.004,32.801c0,0.295-0.277,0.701-0.829,1.22v-0.277
		c0-0.295,0.054-0.721,0.164-1.274c-0.221-0.112-0.665-0.148-1.33-0.112c0-0.11-0.027-0.248-0.082-0.414
		c-0.056-0.168-0.083-0.305-0.083-0.415h0.886C31.58,31.527,32.004,31.951,32.004,32.801z M32.946,38.455
		c0,0.217-0.074,0.478-0.221,0.775v-0.172c0-0.549-0.388-0.829-1.163-0.829c-0.52,0-1.092,0.095-1.718,0.28l0.165-0.613h2.771
		C32.891,38.378,32.946,38.563,32.946,38.455z M36.824,47.536c-0.076,0.113-0.203,0.298-0.388,0.559h-3.601v-0.721
		c0-0.334,0.295-0.632,0.886-0.889s1.069-0.387,1.438-0.387C35.791,46.099,36.342,46.58,36.824,47.536z M36.382,51.473
		c-0.185,0.076-0.739,0.149-1.664,0.221c-0.7,0.036-1.163,0.279-1.384,0.722c0.186,0,0.451,0.054,0.803,0.167
		c0.352,0.112,0.6,0.167,0.749,0.167C35.548,52.749,36.048,52.325,36.382,51.473z M37.987,44.047
		c-1.294-0.33-2.178-0.496-2.656-0.496c-0.445,0-0.888,0.107-1.332,0.333c0.331-1.551,0.868-2.326,1.607-2.326
		C37.229,41.558,38.023,42.387,37.987,44.047z M38.65,37.955c-0.072,0.257-0.198,0.627-0.388,1.104
		c-0.663-0.662-1.254-0.991-1.768-0.991c-0.189,0-0.483,0.072-0.889,0.217c-0.519,0.226-0.852,0.351-0.998,0.388
		c0.035-0.958,0.611-1.438,1.715-1.438C36.919,37.233,37.694,37.475,38.65,37.955z M37.658,32.303h-0.947v-0.775
		c0.077,0,0.199-0.027,0.361-0.083c0.172-0.057,0.306-0.084,0.415-0.084C37.487,31.769,37.546,32.082,37.658,32.303z M42.199,45.769
		c0,0.699-0.185,1.416-0.555,2.156c-0.627-0.109-1.218-0.163-1.772-0.163c-0.519,0-1.014,0.054-1.497,0.163v-0.718
		c0-0.627,0.284-1.136,0.861-1.524c0.568-0.387,1.173-0.58,1.8-0.58C41.292,45.103,41.681,45.322,42.199,45.769z M41.645,51.473
		c-0.479,0.076-1.015,0.112-1.605,0.112c-0.595,0-1.146-0.036-1.664-0.112v0.942c0.221,0,0.528,0.09,0.915,0.279
		c0.389,0.18,0.694,0.275,0.912,0.275c0.152,0,0.359-0.067,0.64-0.193c0.279-0.132,0.486-0.194,0.64-0.194
		C41.554,52.325,41.608,51.955,41.645,51.473z M43.033,42.55c0,0.226-0.108,0.473-0.307,0.748c-0.208,0.279-0.415,0.419-0.641,0.419
		c-0.145,0-0.433-0.166-0.856-0.501c-0.425-0.333-0.713-0.495-0.856-0.495c-0.153,0-0.262,0.055-0.334,0.162
		c-0.072,0.112-0.167,0.171-0.279,0.171c-0.108,0-0.258-0.031-0.442-0.085c-0.185-0.059-0.333-0.086-0.441-0.086v-0.775
		c0.626-0.699,1.344-1.051,2.16-1.051c0.405,0,0.843,0.149,1.303,0.442C42.799,41.797,43.033,42.144,43.033,42.55z M42.975,37.842
		L41.698,37.4c-0.145,0-0.303,0.074-0.469,0.221c-0.167,0.149-0.288,0.221-0.36,0.221v-0.054c0-0.11-0.109-0.406-0.334-0.886
		c0.262,0,0.649,0.026,1.163,0.082c0.519,0.055,0.906,0.082,1.163,0.082C42.898,37.253,42.938,37.511,42.975,37.842z M43.195,32.69
		h-0.221l-1.439-0.057c0.073-0.516,0.276-0.775,0.61-0.775h1.05V32.69z M46.686,47.429c0,0.261-0.239,0.757-0.722,1.496
		c0.036-0.37-0.293-0.648-0.991-0.83c-0.077,0.182-0.114,0.406-0.114,0.663h-1.33v-1.108c0.073-0.113,0.325-0.257,0.75-0.442
		c0.423-0.185,0.712-0.274,0.856-0.274h1.217C46.577,47.185,46.686,47.356,46.686,47.429z M47.573,43.992l-0.607,1.055
		c-1.331-0.667-1.976-1-1.939-1c-0.227,0-0.537,0.112-0.943,0.333c0-0.257-0.13-0.496-0.387-0.722
		c0.924-0.622,1.51-0.938,1.771-0.938h1.718C47.442,43.234,47.573,43.658,47.573,43.992z M47.849,37.731
		c-0.036,0.188-0.09,0.444-0.163,0.778c0.146,0-0.207,0-1.055,0c-0.812,0-1.182,0.351-1.109,1.05
		c-0.478-0.221-0.919-0.537-1.325-0.942c0.514-0.811,1.271-1.217,2.269-1.217C46.649,37.4,47.109,37.511,47.849,37.731z
		 M48.408,26.597c-0.411,0.146-1.02,0.388-1.831,0.719v-0.167c0-0.552,0.333-0.83,0.996-0.83c0.112,0,0.258,0.036,0.446,0.11
		C48.2,26.504,48.331,26.558,48.408,26.597z M51.064,44.881c-0.078,0-0.186,0.054-0.33,0.166c-0.153,0.108-0.297,0.162-0.446,0.162
		h-2.214c0-0.144,0.026-0.387,0.081-0.717c0.054-0.333,0.081-0.572,0.081-0.721c0.112-0.036,0.871-0.149,2.272-0.329
		C50.622,43.586,50.807,44.064,51.064,44.881z M51.397,33.3c-0.148,0-0.36-0.046-0.636-0.138c-0.279-0.093-0.492-0.14-0.641-0.14
		c-0.145,0-0.352,0.082-0.608,0.249c-0.257,0.168-0.441,0.25-0.555,0.25c-0.145-0.148-0.334-0.222-0.55-0.222
		c0.734-0.738,1.271-1.108,1.604-1.108h0.83L51.397,33.3z M51.726,39.506c-0.107,0-0.274-0.019-0.495-0.059
		c-0.221-0.036-0.388-0.055-0.496-0.055c-0.226,0-0.631,0.442-1.222,1.331c-0.185-0.113-0.388-0.424-0.609-0.942
		c0.186-0.334,0.555-0.645,1.109-0.938c0.442-0.189,0.884-0.388,1.326-0.613C51.451,38.563,51.582,38.987,51.726,39.506z
		 M53.557,40.335c-0.333,0-0.924,0.298-1.771,0.889c0.113-0.334,0.329-0.775,0.663-1.331C52.633,39.893,53.002,40.042,53.557,40.335
		z M54.667,33.409c-0.036,0.075-0.263,0.112-0.668,0.112c-0.703,0-1.146,0.442-1.325,1.329c-0.041,0-0.154-0.036-0.334-0.111
		c-0.189-0.071-0.279-0.202-0.279-0.387c0-0.036,0.185-0.425,0.555-1.164L54.667,33.409z M56.271,34.408
		c-0.59,0.221-1.128,0.758-1.604,1.604c-0.036-0.036-0.122-0.118-0.254-0.247c-0.126-0.128-0.188-0.269-0.188-0.415
		c0-0.37,0.257-0.629,0.775-0.777C55.406,34.537,55.829,34.482,56.271,34.408z"/>
</g>
</svg>
